%TF.GenerationSoftware,KiCad,Pcbnew,8.0.0*%
%TF.CreationDate,2025-04-24T18:39:19-03:00*%
%TF.ProjectId,PRJ4 (Alimentador Digital),50524a34-2028-4416-9c69-6d656e746164,rev?*%
%TF.SameCoordinates,Original*%
%TF.FileFunction,Drillmap*%
%TF.FilePolarity,Positive*%
%FSLAX45Y45*%
G04 Gerber Fmt 4.5, Leading zero omitted, Abs format (unit mm)*
G04 Created by KiCad (PCBNEW 8.0.0) date 2025-04-24 18:39:19*
%MOMM*%
%LPD*%
G01*
G04 APERTURE LIST*
%ADD10C,0.100000*%
%ADD11C,0.200000*%
%ADD12C,0.320000*%
G04 APERTURE END LIST*
D10*
X11527500Y-6750000D02*
X17052500Y-6750000D01*
X17052500Y-13040000D01*
X11527500Y-13040000D01*
X11527500Y-6750000D01*
D11*
D10*
X12630000Y-7060000D02*
X12710000Y-7140000D01*
X12710000Y-7060000D02*
X12630000Y-7140000D01*
X11802500Y-8232500D02*
G75*
G02*
X11712500Y-8232500I-45000J0D01*
G01*
X11712500Y-8232500D02*
G75*
G02*
X11802500Y-8232500I45000J0D01*
G01*
X11802500Y-8912500D02*
G75*
G02*
X11712500Y-8912500I-45000J0D01*
G01*
X11712500Y-8912500D02*
G75*
G02*
X11802500Y-8912500I45000J0D01*
G01*
X14957500Y-12832500D02*
G75*
G02*
X14867500Y-12832500I-45000J0D01*
G01*
X14867500Y-12832500D02*
G75*
G02*
X14957500Y-12832500I45000J0D01*
G01*
X15637500Y-12832500D02*
G75*
G02*
X15547500Y-12832500I-45000J0D01*
G01*
X15547500Y-12832500D02*
G75*
G02*
X15637500Y-12832500I45000J0D01*
G01*
D12*
X11960000Y-7120000D02*
X11960000Y-7440000D01*
X11800000Y-7280000D02*
X12120000Y-7280000D01*
X11960000Y-12480000D02*
X11960000Y-12800000D01*
X11800000Y-12640000D02*
X12120000Y-12640000D01*
X16640000Y-7120000D02*
X16640000Y-7440000D01*
X16480000Y-7280000D02*
X16800000Y-7280000D01*
X16640000Y-12480000D02*
X16640000Y-12800000D01*
X16480000Y-12640000D02*
X16800000Y-12640000D01*
D11*
X11783277Y-13356484D02*
X11783277Y-13156484D01*
X11783277Y-13156484D02*
X11830896Y-13156484D01*
X11830896Y-13156484D02*
X11859467Y-13166008D01*
X11859467Y-13166008D02*
X11878515Y-13185055D01*
X11878515Y-13185055D02*
X11888039Y-13204103D01*
X11888039Y-13204103D02*
X11897562Y-13242198D01*
X11897562Y-13242198D02*
X11897562Y-13270769D01*
X11897562Y-13270769D02*
X11888039Y-13308865D01*
X11888039Y-13308865D02*
X11878515Y-13327912D01*
X11878515Y-13327912D02*
X11859467Y-13346960D01*
X11859467Y-13346960D02*
X11830896Y-13356484D01*
X11830896Y-13356484D02*
X11783277Y-13356484D01*
X11983277Y-13356484D02*
X11983277Y-13223150D01*
X11983277Y-13261246D02*
X11992801Y-13242198D01*
X11992801Y-13242198D02*
X12002324Y-13232674D01*
X12002324Y-13232674D02*
X12021372Y-13223150D01*
X12021372Y-13223150D02*
X12040420Y-13223150D01*
X12107086Y-13356484D02*
X12107086Y-13223150D01*
X12107086Y-13156484D02*
X12097562Y-13166008D01*
X12097562Y-13166008D02*
X12107086Y-13175531D01*
X12107086Y-13175531D02*
X12116610Y-13166008D01*
X12116610Y-13166008D02*
X12107086Y-13156484D01*
X12107086Y-13156484D02*
X12107086Y-13175531D01*
X12230896Y-13356484D02*
X12211848Y-13346960D01*
X12211848Y-13346960D02*
X12202324Y-13327912D01*
X12202324Y-13327912D02*
X12202324Y-13156484D01*
X12335658Y-13356484D02*
X12316610Y-13346960D01*
X12316610Y-13346960D02*
X12307086Y-13327912D01*
X12307086Y-13327912D02*
X12307086Y-13156484D01*
X12564229Y-13356484D02*
X12564229Y-13156484D01*
X12564229Y-13156484D02*
X12630896Y-13299341D01*
X12630896Y-13299341D02*
X12697562Y-13156484D01*
X12697562Y-13156484D02*
X12697562Y-13356484D01*
X12878515Y-13356484D02*
X12878515Y-13251722D01*
X12878515Y-13251722D02*
X12868991Y-13232674D01*
X12868991Y-13232674D02*
X12849943Y-13223150D01*
X12849943Y-13223150D02*
X12811848Y-13223150D01*
X12811848Y-13223150D02*
X12792801Y-13232674D01*
X12878515Y-13346960D02*
X12859467Y-13356484D01*
X12859467Y-13356484D02*
X12811848Y-13356484D01*
X12811848Y-13356484D02*
X12792801Y-13346960D01*
X12792801Y-13346960D02*
X12783277Y-13327912D01*
X12783277Y-13327912D02*
X12783277Y-13308865D01*
X12783277Y-13308865D02*
X12792801Y-13289817D01*
X12792801Y-13289817D02*
X12811848Y-13280293D01*
X12811848Y-13280293D02*
X12859467Y-13280293D01*
X12859467Y-13280293D02*
X12878515Y-13270769D01*
X12973753Y-13223150D02*
X12973753Y-13423150D01*
X12973753Y-13232674D02*
X12992801Y-13223150D01*
X12992801Y-13223150D02*
X13030896Y-13223150D01*
X13030896Y-13223150D02*
X13049943Y-13232674D01*
X13049943Y-13232674D02*
X13059467Y-13242198D01*
X13059467Y-13242198D02*
X13068991Y-13261246D01*
X13068991Y-13261246D02*
X13068991Y-13318388D01*
X13068991Y-13318388D02*
X13059467Y-13337436D01*
X13059467Y-13337436D02*
X13049943Y-13346960D01*
X13049943Y-13346960D02*
X13030896Y-13356484D01*
X13030896Y-13356484D02*
X12992801Y-13356484D01*
X12992801Y-13356484D02*
X12973753Y-13346960D01*
X13154705Y-13337436D02*
X13164229Y-13346960D01*
X13164229Y-13346960D02*
X13154705Y-13356484D01*
X13154705Y-13356484D02*
X13145182Y-13346960D01*
X13145182Y-13346960D02*
X13154705Y-13337436D01*
X13154705Y-13337436D02*
X13154705Y-13356484D01*
X13154705Y-13232674D02*
X13164229Y-13242198D01*
X13164229Y-13242198D02*
X13154705Y-13251722D01*
X13154705Y-13251722D02*
X13145182Y-13242198D01*
X13145182Y-13242198D02*
X13154705Y-13232674D01*
X13154705Y-13232674D02*
X13154705Y-13251722D01*
D10*
X11442500Y-13645000D02*
X11522500Y-13725000D01*
X11522500Y-13645000D02*
X11442500Y-13725000D01*
D11*
X11821372Y-13576484D02*
X11840420Y-13576484D01*
X11840420Y-13576484D02*
X11859467Y-13586008D01*
X11859467Y-13586008D02*
X11868991Y-13595531D01*
X11868991Y-13595531D02*
X11878515Y-13614579D01*
X11878515Y-13614579D02*
X11888039Y-13652674D01*
X11888039Y-13652674D02*
X11888039Y-13700293D01*
X11888039Y-13700293D02*
X11878515Y-13738388D01*
X11878515Y-13738388D02*
X11868991Y-13757436D01*
X11868991Y-13757436D02*
X11859467Y-13766960D01*
X11859467Y-13766960D02*
X11840420Y-13776484D01*
X11840420Y-13776484D02*
X11821372Y-13776484D01*
X11821372Y-13776484D02*
X11802324Y-13766960D01*
X11802324Y-13766960D02*
X11792801Y-13757436D01*
X11792801Y-13757436D02*
X11783277Y-13738388D01*
X11783277Y-13738388D02*
X11773753Y-13700293D01*
X11773753Y-13700293D02*
X11773753Y-13652674D01*
X11773753Y-13652674D02*
X11783277Y-13614579D01*
X11783277Y-13614579D02*
X11792801Y-13595531D01*
X11792801Y-13595531D02*
X11802324Y-13586008D01*
X11802324Y-13586008D02*
X11821372Y-13576484D01*
X11973753Y-13757436D02*
X11983277Y-13766960D01*
X11983277Y-13766960D02*
X11973753Y-13776484D01*
X11973753Y-13776484D02*
X11964229Y-13766960D01*
X11964229Y-13766960D02*
X11973753Y-13757436D01*
X11973753Y-13757436D02*
X11973753Y-13776484D01*
X12097562Y-13662198D02*
X12078515Y-13652674D01*
X12078515Y-13652674D02*
X12068991Y-13643150D01*
X12068991Y-13643150D02*
X12059467Y-13624103D01*
X12059467Y-13624103D02*
X12059467Y-13614579D01*
X12059467Y-13614579D02*
X12068991Y-13595531D01*
X12068991Y-13595531D02*
X12078515Y-13586008D01*
X12078515Y-13586008D02*
X12097562Y-13576484D01*
X12097562Y-13576484D02*
X12135658Y-13576484D01*
X12135658Y-13576484D02*
X12154705Y-13586008D01*
X12154705Y-13586008D02*
X12164229Y-13595531D01*
X12164229Y-13595531D02*
X12173753Y-13614579D01*
X12173753Y-13614579D02*
X12173753Y-13624103D01*
X12173753Y-13624103D02*
X12164229Y-13643150D01*
X12164229Y-13643150D02*
X12154705Y-13652674D01*
X12154705Y-13652674D02*
X12135658Y-13662198D01*
X12135658Y-13662198D02*
X12097562Y-13662198D01*
X12097562Y-13662198D02*
X12078515Y-13671722D01*
X12078515Y-13671722D02*
X12068991Y-13681246D01*
X12068991Y-13681246D02*
X12059467Y-13700293D01*
X12059467Y-13700293D02*
X12059467Y-13738388D01*
X12059467Y-13738388D02*
X12068991Y-13757436D01*
X12068991Y-13757436D02*
X12078515Y-13766960D01*
X12078515Y-13766960D02*
X12097562Y-13776484D01*
X12097562Y-13776484D02*
X12135658Y-13776484D01*
X12135658Y-13776484D02*
X12154705Y-13766960D01*
X12154705Y-13766960D02*
X12164229Y-13757436D01*
X12164229Y-13757436D02*
X12173753Y-13738388D01*
X12173753Y-13738388D02*
X12173753Y-13700293D01*
X12173753Y-13700293D02*
X12164229Y-13681246D01*
X12164229Y-13681246D02*
X12154705Y-13671722D01*
X12154705Y-13671722D02*
X12135658Y-13662198D01*
X12297562Y-13576484D02*
X12316610Y-13576484D01*
X12316610Y-13576484D02*
X12335658Y-13586008D01*
X12335658Y-13586008D02*
X12345182Y-13595531D01*
X12345182Y-13595531D02*
X12354705Y-13614579D01*
X12354705Y-13614579D02*
X12364229Y-13652674D01*
X12364229Y-13652674D02*
X12364229Y-13700293D01*
X12364229Y-13700293D02*
X12354705Y-13738388D01*
X12354705Y-13738388D02*
X12345182Y-13757436D01*
X12345182Y-13757436D02*
X12335658Y-13766960D01*
X12335658Y-13766960D02*
X12316610Y-13776484D01*
X12316610Y-13776484D02*
X12297562Y-13776484D01*
X12297562Y-13776484D02*
X12278515Y-13766960D01*
X12278515Y-13766960D02*
X12268991Y-13757436D01*
X12268991Y-13757436D02*
X12259467Y-13738388D01*
X12259467Y-13738388D02*
X12249943Y-13700293D01*
X12249943Y-13700293D02*
X12249943Y-13652674D01*
X12249943Y-13652674D02*
X12259467Y-13614579D01*
X12259467Y-13614579D02*
X12268991Y-13595531D01*
X12268991Y-13595531D02*
X12278515Y-13586008D01*
X12278515Y-13586008D02*
X12297562Y-13576484D01*
X12488039Y-13576484D02*
X12507086Y-13576484D01*
X12507086Y-13576484D02*
X12526134Y-13586008D01*
X12526134Y-13586008D02*
X12535658Y-13595531D01*
X12535658Y-13595531D02*
X12545182Y-13614579D01*
X12545182Y-13614579D02*
X12554705Y-13652674D01*
X12554705Y-13652674D02*
X12554705Y-13700293D01*
X12554705Y-13700293D02*
X12545182Y-13738388D01*
X12545182Y-13738388D02*
X12535658Y-13757436D01*
X12535658Y-13757436D02*
X12526134Y-13766960D01*
X12526134Y-13766960D02*
X12507086Y-13776484D01*
X12507086Y-13776484D02*
X12488039Y-13776484D01*
X12488039Y-13776484D02*
X12468991Y-13766960D01*
X12468991Y-13766960D02*
X12459467Y-13757436D01*
X12459467Y-13757436D02*
X12449943Y-13738388D01*
X12449943Y-13738388D02*
X12440420Y-13700293D01*
X12440420Y-13700293D02*
X12440420Y-13652674D01*
X12440420Y-13652674D02*
X12449943Y-13614579D01*
X12449943Y-13614579D02*
X12459467Y-13595531D01*
X12459467Y-13595531D02*
X12468991Y-13586008D01*
X12468991Y-13586008D02*
X12488039Y-13576484D01*
X12640420Y-13776484D02*
X12640420Y-13643150D01*
X12640420Y-13662198D02*
X12649943Y-13652674D01*
X12649943Y-13652674D02*
X12668991Y-13643150D01*
X12668991Y-13643150D02*
X12697563Y-13643150D01*
X12697563Y-13643150D02*
X12716610Y-13652674D01*
X12716610Y-13652674D02*
X12726134Y-13671722D01*
X12726134Y-13671722D02*
X12726134Y-13776484D01*
X12726134Y-13671722D02*
X12735658Y-13652674D01*
X12735658Y-13652674D02*
X12754705Y-13643150D01*
X12754705Y-13643150D02*
X12783277Y-13643150D01*
X12783277Y-13643150D02*
X12802324Y-13652674D01*
X12802324Y-13652674D02*
X12811848Y-13671722D01*
X12811848Y-13671722D02*
X12811848Y-13776484D01*
X12907086Y-13776484D02*
X12907086Y-13643150D01*
X12907086Y-13662198D02*
X12916610Y-13652674D01*
X12916610Y-13652674D02*
X12935658Y-13643150D01*
X12935658Y-13643150D02*
X12964229Y-13643150D01*
X12964229Y-13643150D02*
X12983277Y-13652674D01*
X12983277Y-13652674D02*
X12992801Y-13671722D01*
X12992801Y-13671722D02*
X12992801Y-13776484D01*
X12992801Y-13671722D02*
X13002324Y-13652674D01*
X13002324Y-13652674D02*
X13021372Y-13643150D01*
X13021372Y-13643150D02*
X13049943Y-13643150D01*
X13049943Y-13643150D02*
X13068991Y-13652674D01*
X13068991Y-13652674D02*
X13078515Y-13671722D01*
X13078515Y-13671722D02*
X13078515Y-13776484D01*
X13468991Y-13566960D02*
X13297563Y-13824103D01*
X13726134Y-13576484D02*
X13745182Y-13576484D01*
X13745182Y-13576484D02*
X13764229Y-13586008D01*
X13764229Y-13586008D02*
X13773753Y-13595531D01*
X13773753Y-13595531D02*
X13783277Y-13614579D01*
X13783277Y-13614579D02*
X13792801Y-13652674D01*
X13792801Y-13652674D02*
X13792801Y-13700293D01*
X13792801Y-13700293D02*
X13783277Y-13738388D01*
X13783277Y-13738388D02*
X13773753Y-13757436D01*
X13773753Y-13757436D02*
X13764229Y-13766960D01*
X13764229Y-13766960D02*
X13745182Y-13776484D01*
X13745182Y-13776484D02*
X13726134Y-13776484D01*
X13726134Y-13776484D02*
X13707086Y-13766960D01*
X13707086Y-13766960D02*
X13697563Y-13757436D01*
X13697563Y-13757436D02*
X13688039Y-13738388D01*
X13688039Y-13738388D02*
X13678515Y-13700293D01*
X13678515Y-13700293D02*
X13678515Y-13652674D01*
X13678515Y-13652674D02*
X13688039Y-13614579D01*
X13688039Y-13614579D02*
X13697563Y-13595531D01*
X13697563Y-13595531D02*
X13707086Y-13586008D01*
X13707086Y-13586008D02*
X13726134Y-13576484D01*
X13878515Y-13757436D02*
X13888039Y-13766960D01*
X13888039Y-13766960D02*
X13878515Y-13776484D01*
X13878515Y-13776484D02*
X13868991Y-13766960D01*
X13868991Y-13766960D02*
X13878515Y-13757436D01*
X13878515Y-13757436D02*
X13878515Y-13776484D01*
X14011848Y-13576484D02*
X14030896Y-13576484D01*
X14030896Y-13576484D02*
X14049944Y-13586008D01*
X14049944Y-13586008D02*
X14059467Y-13595531D01*
X14059467Y-13595531D02*
X14068991Y-13614579D01*
X14068991Y-13614579D02*
X14078515Y-13652674D01*
X14078515Y-13652674D02*
X14078515Y-13700293D01*
X14078515Y-13700293D02*
X14068991Y-13738388D01*
X14068991Y-13738388D02*
X14059467Y-13757436D01*
X14059467Y-13757436D02*
X14049944Y-13766960D01*
X14049944Y-13766960D02*
X14030896Y-13776484D01*
X14030896Y-13776484D02*
X14011848Y-13776484D01*
X14011848Y-13776484D02*
X13992801Y-13766960D01*
X13992801Y-13766960D02*
X13983277Y-13757436D01*
X13983277Y-13757436D02*
X13973753Y-13738388D01*
X13973753Y-13738388D02*
X13964229Y-13700293D01*
X13964229Y-13700293D02*
X13964229Y-13652674D01*
X13964229Y-13652674D02*
X13973753Y-13614579D01*
X13973753Y-13614579D02*
X13983277Y-13595531D01*
X13983277Y-13595531D02*
X13992801Y-13586008D01*
X13992801Y-13586008D02*
X14011848Y-13576484D01*
X14145182Y-13576484D02*
X14268991Y-13576484D01*
X14268991Y-13576484D02*
X14202325Y-13652674D01*
X14202325Y-13652674D02*
X14230896Y-13652674D01*
X14230896Y-13652674D02*
X14249944Y-13662198D01*
X14249944Y-13662198D02*
X14259467Y-13671722D01*
X14259467Y-13671722D02*
X14268991Y-13690769D01*
X14268991Y-13690769D02*
X14268991Y-13738388D01*
X14268991Y-13738388D02*
X14259467Y-13757436D01*
X14259467Y-13757436D02*
X14249944Y-13766960D01*
X14249944Y-13766960D02*
X14230896Y-13776484D01*
X14230896Y-13776484D02*
X14173753Y-13776484D01*
X14173753Y-13776484D02*
X14154706Y-13766960D01*
X14154706Y-13766960D02*
X14145182Y-13757436D01*
X14459467Y-13776484D02*
X14345182Y-13776484D01*
X14402325Y-13776484D02*
X14402325Y-13576484D01*
X14402325Y-13576484D02*
X14383277Y-13605055D01*
X14383277Y-13605055D02*
X14364229Y-13624103D01*
X14364229Y-13624103D02*
X14345182Y-13633627D01*
X14640420Y-13576484D02*
X14545182Y-13576484D01*
X14545182Y-13576484D02*
X14535658Y-13671722D01*
X14535658Y-13671722D02*
X14545182Y-13662198D01*
X14545182Y-13662198D02*
X14564229Y-13652674D01*
X14564229Y-13652674D02*
X14611848Y-13652674D01*
X14611848Y-13652674D02*
X14630896Y-13662198D01*
X14630896Y-13662198D02*
X14640420Y-13671722D01*
X14640420Y-13671722D02*
X14649944Y-13690769D01*
X14649944Y-13690769D02*
X14649944Y-13738388D01*
X14649944Y-13738388D02*
X14640420Y-13757436D01*
X14640420Y-13757436D02*
X14630896Y-13766960D01*
X14630896Y-13766960D02*
X14611848Y-13776484D01*
X14611848Y-13776484D02*
X14564229Y-13776484D01*
X14564229Y-13776484D02*
X14545182Y-13766960D01*
X14545182Y-13766960D02*
X14535658Y-13757436D01*
X14726134Y-13576484D02*
X14726134Y-13614579D01*
X14802325Y-13576484D02*
X14802325Y-13614579D01*
X15097563Y-13852674D02*
X15088039Y-13843150D01*
X15088039Y-13843150D02*
X15068991Y-13814579D01*
X15068991Y-13814579D02*
X15059468Y-13795531D01*
X15059468Y-13795531D02*
X15049944Y-13766960D01*
X15049944Y-13766960D02*
X15040420Y-13719341D01*
X15040420Y-13719341D02*
X15040420Y-13681246D01*
X15040420Y-13681246D02*
X15049944Y-13633627D01*
X15049944Y-13633627D02*
X15059468Y-13605055D01*
X15059468Y-13605055D02*
X15068991Y-13586008D01*
X15068991Y-13586008D02*
X15088039Y-13557436D01*
X15088039Y-13557436D02*
X15097563Y-13547912D01*
X15278515Y-13776484D02*
X15164229Y-13776484D01*
X15221372Y-13776484D02*
X15221372Y-13576484D01*
X15221372Y-13576484D02*
X15202325Y-13605055D01*
X15202325Y-13605055D02*
X15183277Y-13624103D01*
X15183277Y-13624103D02*
X15164229Y-13633627D01*
X15516610Y-13776484D02*
X15516610Y-13576484D01*
X15602325Y-13776484D02*
X15602325Y-13671722D01*
X15602325Y-13671722D02*
X15592801Y-13652674D01*
X15592801Y-13652674D02*
X15573753Y-13643150D01*
X15573753Y-13643150D02*
X15545182Y-13643150D01*
X15545182Y-13643150D02*
X15526134Y-13652674D01*
X15526134Y-13652674D02*
X15516610Y-13662198D01*
X15726134Y-13776484D02*
X15707087Y-13766960D01*
X15707087Y-13766960D02*
X15697563Y-13757436D01*
X15697563Y-13757436D02*
X15688039Y-13738388D01*
X15688039Y-13738388D02*
X15688039Y-13681246D01*
X15688039Y-13681246D02*
X15697563Y-13662198D01*
X15697563Y-13662198D02*
X15707087Y-13652674D01*
X15707087Y-13652674D02*
X15726134Y-13643150D01*
X15726134Y-13643150D02*
X15754706Y-13643150D01*
X15754706Y-13643150D02*
X15773753Y-13652674D01*
X15773753Y-13652674D02*
X15783277Y-13662198D01*
X15783277Y-13662198D02*
X15792801Y-13681246D01*
X15792801Y-13681246D02*
X15792801Y-13738388D01*
X15792801Y-13738388D02*
X15783277Y-13757436D01*
X15783277Y-13757436D02*
X15773753Y-13766960D01*
X15773753Y-13766960D02*
X15754706Y-13776484D01*
X15754706Y-13776484D02*
X15726134Y-13776484D01*
X15907087Y-13776484D02*
X15888039Y-13766960D01*
X15888039Y-13766960D02*
X15878515Y-13747912D01*
X15878515Y-13747912D02*
X15878515Y-13576484D01*
X16059468Y-13766960D02*
X16040420Y-13776484D01*
X16040420Y-13776484D02*
X16002325Y-13776484D01*
X16002325Y-13776484D02*
X15983277Y-13766960D01*
X15983277Y-13766960D02*
X15973753Y-13747912D01*
X15973753Y-13747912D02*
X15973753Y-13671722D01*
X15973753Y-13671722D02*
X15983277Y-13652674D01*
X15983277Y-13652674D02*
X16002325Y-13643150D01*
X16002325Y-13643150D02*
X16040420Y-13643150D01*
X16040420Y-13643150D02*
X16059468Y-13652674D01*
X16059468Y-13652674D02*
X16068991Y-13671722D01*
X16068991Y-13671722D02*
X16068991Y-13690769D01*
X16068991Y-13690769D02*
X15973753Y-13709817D01*
X16135658Y-13852674D02*
X16145182Y-13843150D01*
X16145182Y-13843150D02*
X16164230Y-13814579D01*
X16164230Y-13814579D02*
X16173753Y-13795531D01*
X16173753Y-13795531D02*
X16183277Y-13766960D01*
X16183277Y-13766960D02*
X16192801Y-13719341D01*
X16192801Y-13719341D02*
X16192801Y-13681246D01*
X16192801Y-13681246D02*
X16183277Y-13633627D01*
X16183277Y-13633627D02*
X16173753Y-13605055D01*
X16173753Y-13605055D02*
X16164230Y-13586008D01*
X16164230Y-13586008D02*
X16145182Y-13557436D01*
X16145182Y-13557436D02*
X16135658Y-13547912D01*
X16497563Y-13852674D02*
X16488039Y-13843150D01*
X16488039Y-13843150D02*
X16468991Y-13814579D01*
X16468991Y-13814579D02*
X16459468Y-13795531D01*
X16459468Y-13795531D02*
X16449944Y-13766960D01*
X16449944Y-13766960D02*
X16440420Y-13719341D01*
X16440420Y-13719341D02*
X16440420Y-13681246D01*
X16440420Y-13681246D02*
X16449944Y-13633627D01*
X16449944Y-13633627D02*
X16459468Y-13605055D01*
X16459468Y-13605055D02*
X16468991Y-13586008D01*
X16468991Y-13586008D02*
X16488039Y-13557436D01*
X16488039Y-13557436D02*
X16497563Y-13547912D01*
X16573753Y-13643150D02*
X16573753Y-13776484D01*
X16573753Y-13662198D02*
X16583277Y-13652674D01*
X16583277Y-13652674D02*
X16602325Y-13643150D01*
X16602325Y-13643150D02*
X16630896Y-13643150D01*
X16630896Y-13643150D02*
X16649944Y-13652674D01*
X16649944Y-13652674D02*
X16659468Y-13671722D01*
X16659468Y-13671722D02*
X16659468Y-13776484D01*
X16783277Y-13776484D02*
X16764230Y-13766960D01*
X16764230Y-13766960D02*
X16754706Y-13757436D01*
X16754706Y-13757436D02*
X16745182Y-13738388D01*
X16745182Y-13738388D02*
X16745182Y-13681246D01*
X16745182Y-13681246D02*
X16754706Y-13662198D01*
X16754706Y-13662198D02*
X16764230Y-13652674D01*
X16764230Y-13652674D02*
X16783277Y-13643150D01*
X16783277Y-13643150D02*
X16811849Y-13643150D01*
X16811849Y-13643150D02*
X16830896Y-13652674D01*
X16830896Y-13652674D02*
X16840420Y-13662198D01*
X16840420Y-13662198D02*
X16849944Y-13681246D01*
X16849944Y-13681246D02*
X16849944Y-13738388D01*
X16849944Y-13738388D02*
X16840420Y-13757436D01*
X16840420Y-13757436D02*
X16830896Y-13766960D01*
X16830896Y-13766960D02*
X16811849Y-13776484D01*
X16811849Y-13776484D02*
X16783277Y-13776484D01*
X16907087Y-13643150D02*
X16983277Y-13643150D01*
X16935658Y-13576484D02*
X16935658Y-13747912D01*
X16935658Y-13747912D02*
X16945182Y-13766960D01*
X16945182Y-13766960D02*
X16964230Y-13776484D01*
X16964230Y-13776484D02*
X16983277Y-13776484D01*
X17202325Y-13643150D02*
X17202325Y-13843150D01*
X17202325Y-13652674D02*
X17221373Y-13643150D01*
X17221373Y-13643150D02*
X17259468Y-13643150D01*
X17259468Y-13643150D02*
X17278515Y-13652674D01*
X17278515Y-13652674D02*
X17288039Y-13662198D01*
X17288039Y-13662198D02*
X17297563Y-13681246D01*
X17297563Y-13681246D02*
X17297563Y-13738388D01*
X17297563Y-13738388D02*
X17288039Y-13757436D01*
X17288039Y-13757436D02*
X17278515Y-13766960D01*
X17278515Y-13766960D02*
X17259468Y-13776484D01*
X17259468Y-13776484D02*
X17221373Y-13776484D01*
X17221373Y-13776484D02*
X17202325Y-13766960D01*
X17411849Y-13776484D02*
X17392801Y-13766960D01*
X17392801Y-13766960D02*
X17383277Y-13747912D01*
X17383277Y-13747912D02*
X17383277Y-13576484D01*
X17573754Y-13776484D02*
X17573754Y-13671722D01*
X17573754Y-13671722D02*
X17564230Y-13652674D01*
X17564230Y-13652674D02*
X17545182Y-13643150D01*
X17545182Y-13643150D02*
X17507087Y-13643150D01*
X17507087Y-13643150D02*
X17488039Y-13652674D01*
X17573754Y-13766960D02*
X17554706Y-13776484D01*
X17554706Y-13776484D02*
X17507087Y-13776484D01*
X17507087Y-13776484D02*
X17488039Y-13766960D01*
X17488039Y-13766960D02*
X17478515Y-13747912D01*
X17478515Y-13747912D02*
X17478515Y-13728865D01*
X17478515Y-13728865D02*
X17488039Y-13709817D01*
X17488039Y-13709817D02*
X17507087Y-13700293D01*
X17507087Y-13700293D02*
X17554706Y-13700293D01*
X17554706Y-13700293D02*
X17573754Y-13690769D01*
X17640420Y-13643150D02*
X17716611Y-13643150D01*
X17668992Y-13576484D02*
X17668992Y-13747912D01*
X17668992Y-13747912D02*
X17678515Y-13766960D01*
X17678515Y-13766960D02*
X17697563Y-13776484D01*
X17697563Y-13776484D02*
X17716611Y-13776484D01*
X17859468Y-13766960D02*
X17840420Y-13776484D01*
X17840420Y-13776484D02*
X17802325Y-13776484D01*
X17802325Y-13776484D02*
X17783277Y-13766960D01*
X17783277Y-13766960D02*
X17773754Y-13747912D01*
X17773754Y-13747912D02*
X17773754Y-13671722D01*
X17773754Y-13671722D02*
X17783277Y-13652674D01*
X17783277Y-13652674D02*
X17802325Y-13643150D01*
X17802325Y-13643150D02*
X17840420Y-13643150D01*
X17840420Y-13643150D02*
X17859468Y-13652674D01*
X17859468Y-13652674D02*
X17868992Y-13671722D01*
X17868992Y-13671722D02*
X17868992Y-13690769D01*
X17868992Y-13690769D02*
X17773754Y-13709817D01*
X18040420Y-13776484D02*
X18040420Y-13576484D01*
X18040420Y-13766960D02*
X18021373Y-13776484D01*
X18021373Y-13776484D02*
X17983277Y-13776484D01*
X17983277Y-13776484D02*
X17964230Y-13766960D01*
X17964230Y-13766960D02*
X17954706Y-13757436D01*
X17954706Y-13757436D02*
X17945182Y-13738388D01*
X17945182Y-13738388D02*
X17945182Y-13681246D01*
X17945182Y-13681246D02*
X17954706Y-13662198D01*
X17954706Y-13662198D02*
X17964230Y-13652674D01*
X17964230Y-13652674D02*
X17983277Y-13643150D01*
X17983277Y-13643150D02*
X18021373Y-13643150D01*
X18021373Y-13643150D02*
X18040420Y-13652674D01*
X18116611Y-13852674D02*
X18126135Y-13843150D01*
X18126135Y-13843150D02*
X18145182Y-13814579D01*
X18145182Y-13814579D02*
X18154706Y-13795531D01*
X18154706Y-13795531D02*
X18164230Y-13766960D01*
X18164230Y-13766960D02*
X18173754Y-13719341D01*
X18173754Y-13719341D02*
X18173754Y-13681246D01*
X18173754Y-13681246D02*
X18164230Y-13633627D01*
X18164230Y-13633627D02*
X18154706Y-13605055D01*
X18154706Y-13605055D02*
X18145182Y-13586008D01*
X18145182Y-13586008D02*
X18126135Y-13557436D01*
X18126135Y-13557436D02*
X18116611Y-13547912D01*
D10*
X11522500Y-13949000D02*
G75*
G02*
X11432500Y-13949000I-45000J0D01*
G01*
X11432500Y-13949000D02*
G75*
G02*
X11522500Y-13949000I45000J0D01*
G01*
D11*
X11821372Y-13840484D02*
X11840420Y-13840484D01*
X11840420Y-13840484D02*
X11859467Y-13850008D01*
X11859467Y-13850008D02*
X11868991Y-13859531D01*
X11868991Y-13859531D02*
X11878515Y-13878579D01*
X11878515Y-13878579D02*
X11888039Y-13916674D01*
X11888039Y-13916674D02*
X11888039Y-13964293D01*
X11888039Y-13964293D02*
X11878515Y-14002388D01*
X11878515Y-14002388D02*
X11868991Y-14021436D01*
X11868991Y-14021436D02*
X11859467Y-14030960D01*
X11859467Y-14030960D02*
X11840420Y-14040484D01*
X11840420Y-14040484D02*
X11821372Y-14040484D01*
X11821372Y-14040484D02*
X11802324Y-14030960D01*
X11802324Y-14030960D02*
X11792801Y-14021436D01*
X11792801Y-14021436D02*
X11783277Y-14002388D01*
X11783277Y-14002388D02*
X11773753Y-13964293D01*
X11773753Y-13964293D02*
X11773753Y-13916674D01*
X11773753Y-13916674D02*
X11783277Y-13878579D01*
X11783277Y-13878579D02*
X11792801Y-13859531D01*
X11792801Y-13859531D02*
X11802324Y-13850008D01*
X11802324Y-13850008D02*
X11821372Y-13840484D01*
X11973753Y-14021436D02*
X11983277Y-14030960D01*
X11983277Y-14030960D02*
X11973753Y-14040484D01*
X11973753Y-14040484D02*
X11964229Y-14030960D01*
X11964229Y-14030960D02*
X11973753Y-14021436D01*
X11973753Y-14021436D02*
X11973753Y-14040484D01*
X12078515Y-14040484D02*
X12116610Y-14040484D01*
X12116610Y-14040484D02*
X12135658Y-14030960D01*
X12135658Y-14030960D02*
X12145182Y-14021436D01*
X12145182Y-14021436D02*
X12164229Y-13992865D01*
X12164229Y-13992865D02*
X12173753Y-13954769D01*
X12173753Y-13954769D02*
X12173753Y-13878579D01*
X12173753Y-13878579D02*
X12164229Y-13859531D01*
X12164229Y-13859531D02*
X12154705Y-13850008D01*
X12154705Y-13850008D02*
X12135658Y-13840484D01*
X12135658Y-13840484D02*
X12097562Y-13840484D01*
X12097562Y-13840484D02*
X12078515Y-13850008D01*
X12078515Y-13850008D02*
X12068991Y-13859531D01*
X12068991Y-13859531D02*
X12059467Y-13878579D01*
X12059467Y-13878579D02*
X12059467Y-13926198D01*
X12059467Y-13926198D02*
X12068991Y-13945246D01*
X12068991Y-13945246D02*
X12078515Y-13954769D01*
X12078515Y-13954769D02*
X12097562Y-13964293D01*
X12097562Y-13964293D02*
X12135658Y-13964293D01*
X12135658Y-13964293D02*
X12154705Y-13954769D01*
X12154705Y-13954769D02*
X12164229Y-13945246D01*
X12164229Y-13945246D02*
X12173753Y-13926198D01*
X12297562Y-13840484D02*
X12316610Y-13840484D01*
X12316610Y-13840484D02*
X12335658Y-13850008D01*
X12335658Y-13850008D02*
X12345182Y-13859531D01*
X12345182Y-13859531D02*
X12354705Y-13878579D01*
X12354705Y-13878579D02*
X12364229Y-13916674D01*
X12364229Y-13916674D02*
X12364229Y-13964293D01*
X12364229Y-13964293D02*
X12354705Y-14002388D01*
X12354705Y-14002388D02*
X12345182Y-14021436D01*
X12345182Y-14021436D02*
X12335658Y-14030960D01*
X12335658Y-14030960D02*
X12316610Y-14040484D01*
X12316610Y-14040484D02*
X12297562Y-14040484D01*
X12297562Y-14040484D02*
X12278515Y-14030960D01*
X12278515Y-14030960D02*
X12268991Y-14021436D01*
X12268991Y-14021436D02*
X12259467Y-14002388D01*
X12259467Y-14002388D02*
X12249943Y-13964293D01*
X12249943Y-13964293D02*
X12249943Y-13916674D01*
X12249943Y-13916674D02*
X12259467Y-13878579D01*
X12259467Y-13878579D02*
X12268991Y-13859531D01*
X12268991Y-13859531D02*
X12278515Y-13850008D01*
X12278515Y-13850008D02*
X12297562Y-13840484D01*
X12488039Y-13840484D02*
X12507086Y-13840484D01*
X12507086Y-13840484D02*
X12526134Y-13850008D01*
X12526134Y-13850008D02*
X12535658Y-13859531D01*
X12535658Y-13859531D02*
X12545182Y-13878579D01*
X12545182Y-13878579D02*
X12554705Y-13916674D01*
X12554705Y-13916674D02*
X12554705Y-13964293D01*
X12554705Y-13964293D02*
X12545182Y-14002388D01*
X12545182Y-14002388D02*
X12535658Y-14021436D01*
X12535658Y-14021436D02*
X12526134Y-14030960D01*
X12526134Y-14030960D02*
X12507086Y-14040484D01*
X12507086Y-14040484D02*
X12488039Y-14040484D01*
X12488039Y-14040484D02*
X12468991Y-14030960D01*
X12468991Y-14030960D02*
X12459467Y-14021436D01*
X12459467Y-14021436D02*
X12449943Y-14002388D01*
X12449943Y-14002388D02*
X12440420Y-13964293D01*
X12440420Y-13964293D02*
X12440420Y-13916674D01*
X12440420Y-13916674D02*
X12449943Y-13878579D01*
X12449943Y-13878579D02*
X12459467Y-13859531D01*
X12459467Y-13859531D02*
X12468991Y-13850008D01*
X12468991Y-13850008D02*
X12488039Y-13840484D01*
X12640420Y-14040484D02*
X12640420Y-13907150D01*
X12640420Y-13926198D02*
X12649943Y-13916674D01*
X12649943Y-13916674D02*
X12668991Y-13907150D01*
X12668991Y-13907150D02*
X12697563Y-13907150D01*
X12697563Y-13907150D02*
X12716610Y-13916674D01*
X12716610Y-13916674D02*
X12726134Y-13935722D01*
X12726134Y-13935722D02*
X12726134Y-14040484D01*
X12726134Y-13935722D02*
X12735658Y-13916674D01*
X12735658Y-13916674D02*
X12754705Y-13907150D01*
X12754705Y-13907150D02*
X12783277Y-13907150D01*
X12783277Y-13907150D02*
X12802324Y-13916674D01*
X12802324Y-13916674D02*
X12811848Y-13935722D01*
X12811848Y-13935722D02*
X12811848Y-14040484D01*
X12907086Y-14040484D02*
X12907086Y-13907150D01*
X12907086Y-13926198D02*
X12916610Y-13916674D01*
X12916610Y-13916674D02*
X12935658Y-13907150D01*
X12935658Y-13907150D02*
X12964229Y-13907150D01*
X12964229Y-13907150D02*
X12983277Y-13916674D01*
X12983277Y-13916674D02*
X12992801Y-13935722D01*
X12992801Y-13935722D02*
X12992801Y-14040484D01*
X12992801Y-13935722D02*
X13002324Y-13916674D01*
X13002324Y-13916674D02*
X13021372Y-13907150D01*
X13021372Y-13907150D02*
X13049943Y-13907150D01*
X13049943Y-13907150D02*
X13068991Y-13916674D01*
X13068991Y-13916674D02*
X13078515Y-13935722D01*
X13078515Y-13935722D02*
X13078515Y-14040484D01*
X13468991Y-13830960D02*
X13297563Y-14088103D01*
X13726134Y-13840484D02*
X13745182Y-13840484D01*
X13745182Y-13840484D02*
X13764229Y-13850008D01*
X13764229Y-13850008D02*
X13773753Y-13859531D01*
X13773753Y-13859531D02*
X13783277Y-13878579D01*
X13783277Y-13878579D02*
X13792801Y-13916674D01*
X13792801Y-13916674D02*
X13792801Y-13964293D01*
X13792801Y-13964293D02*
X13783277Y-14002388D01*
X13783277Y-14002388D02*
X13773753Y-14021436D01*
X13773753Y-14021436D02*
X13764229Y-14030960D01*
X13764229Y-14030960D02*
X13745182Y-14040484D01*
X13745182Y-14040484D02*
X13726134Y-14040484D01*
X13726134Y-14040484D02*
X13707086Y-14030960D01*
X13707086Y-14030960D02*
X13697563Y-14021436D01*
X13697563Y-14021436D02*
X13688039Y-14002388D01*
X13688039Y-14002388D02*
X13678515Y-13964293D01*
X13678515Y-13964293D02*
X13678515Y-13916674D01*
X13678515Y-13916674D02*
X13688039Y-13878579D01*
X13688039Y-13878579D02*
X13697563Y-13859531D01*
X13697563Y-13859531D02*
X13707086Y-13850008D01*
X13707086Y-13850008D02*
X13726134Y-13840484D01*
X13878515Y-14021436D02*
X13888039Y-14030960D01*
X13888039Y-14030960D02*
X13878515Y-14040484D01*
X13878515Y-14040484D02*
X13868991Y-14030960D01*
X13868991Y-14030960D02*
X13878515Y-14021436D01*
X13878515Y-14021436D02*
X13878515Y-14040484D01*
X14011848Y-13840484D02*
X14030896Y-13840484D01*
X14030896Y-13840484D02*
X14049944Y-13850008D01*
X14049944Y-13850008D02*
X14059467Y-13859531D01*
X14059467Y-13859531D02*
X14068991Y-13878579D01*
X14068991Y-13878579D02*
X14078515Y-13916674D01*
X14078515Y-13916674D02*
X14078515Y-13964293D01*
X14078515Y-13964293D02*
X14068991Y-14002388D01*
X14068991Y-14002388D02*
X14059467Y-14021436D01*
X14059467Y-14021436D02*
X14049944Y-14030960D01*
X14049944Y-14030960D02*
X14030896Y-14040484D01*
X14030896Y-14040484D02*
X14011848Y-14040484D01*
X14011848Y-14040484D02*
X13992801Y-14030960D01*
X13992801Y-14030960D02*
X13983277Y-14021436D01*
X13983277Y-14021436D02*
X13973753Y-14002388D01*
X13973753Y-14002388D02*
X13964229Y-13964293D01*
X13964229Y-13964293D02*
X13964229Y-13916674D01*
X13964229Y-13916674D02*
X13973753Y-13878579D01*
X13973753Y-13878579D02*
X13983277Y-13859531D01*
X13983277Y-13859531D02*
X13992801Y-13850008D01*
X13992801Y-13850008D02*
X14011848Y-13840484D01*
X14145182Y-13840484D02*
X14268991Y-13840484D01*
X14268991Y-13840484D02*
X14202325Y-13916674D01*
X14202325Y-13916674D02*
X14230896Y-13916674D01*
X14230896Y-13916674D02*
X14249944Y-13926198D01*
X14249944Y-13926198D02*
X14259467Y-13935722D01*
X14259467Y-13935722D02*
X14268991Y-13954769D01*
X14268991Y-13954769D02*
X14268991Y-14002388D01*
X14268991Y-14002388D02*
X14259467Y-14021436D01*
X14259467Y-14021436D02*
X14249944Y-14030960D01*
X14249944Y-14030960D02*
X14230896Y-14040484D01*
X14230896Y-14040484D02*
X14173753Y-14040484D01*
X14173753Y-14040484D02*
X14154706Y-14030960D01*
X14154706Y-14030960D02*
X14145182Y-14021436D01*
X14449944Y-13840484D02*
X14354706Y-13840484D01*
X14354706Y-13840484D02*
X14345182Y-13935722D01*
X14345182Y-13935722D02*
X14354706Y-13926198D01*
X14354706Y-13926198D02*
X14373753Y-13916674D01*
X14373753Y-13916674D02*
X14421372Y-13916674D01*
X14421372Y-13916674D02*
X14440420Y-13926198D01*
X14440420Y-13926198D02*
X14449944Y-13935722D01*
X14449944Y-13935722D02*
X14459467Y-13954769D01*
X14459467Y-13954769D02*
X14459467Y-14002388D01*
X14459467Y-14002388D02*
X14449944Y-14021436D01*
X14449944Y-14021436D02*
X14440420Y-14030960D01*
X14440420Y-14030960D02*
X14421372Y-14040484D01*
X14421372Y-14040484D02*
X14373753Y-14040484D01*
X14373753Y-14040484D02*
X14354706Y-14030960D01*
X14354706Y-14030960D02*
X14345182Y-14021436D01*
X14630896Y-13907150D02*
X14630896Y-14040484D01*
X14583277Y-13830960D02*
X14535658Y-13973817D01*
X14535658Y-13973817D02*
X14659467Y-13973817D01*
X14726134Y-13840484D02*
X14726134Y-13878579D01*
X14802325Y-13840484D02*
X14802325Y-13878579D01*
X15097563Y-14116674D02*
X15088039Y-14107150D01*
X15088039Y-14107150D02*
X15068991Y-14078579D01*
X15068991Y-14078579D02*
X15059468Y-14059531D01*
X15059468Y-14059531D02*
X15049944Y-14030960D01*
X15049944Y-14030960D02*
X15040420Y-13983341D01*
X15040420Y-13983341D02*
X15040420Y-13945246D01*
X15040420Y-13945246D02*
X15049944Y-13897627D01*
X15049944Y-13897627D02*
X15059468Y-13869055D01*
X15059468Y-13869055D02*
X15068991Y-13850008D01*
X15068991Y-13850008D02*
X15088039Y-13821436D01*
X15088039Y-13821436D02*
X15097563Y-13811912D01*
X15259468Y-13907150D02*
X15259468Y-14040484D01*
X15211848Y-13830960D02*
X15164229Y-13973817D01*
X15164229Y-13973817D02*
X15288039Y-13973817D01*
X15516610Y-14040484D02*
X15516610Y-13840484D01*
X15602325Y-14040484D02*
X15602325Y-13935722D01*
X15602325Y-13935722D02*
X15592801Y-13916674D01*
X15592801Y-13916674D02*
X15573753Y-13907150D01*
X15573753Y-13907150D02*
X15545182Y-13907150D01*
X15545182Y-13907150D02*
X15526134Y-13916674D01*
X15526134Y-13916674D02*
X15516610Y-13926198D01*
X15726134Y-14040484D02*
X15707087Y-14030960D01*
X15707087Y-14030960D02*
X15697563Y-14021436D01*
X15697563Y-14021436D02*
X15688039Y-14002388D01*
X15688039Y-14002388D02*
X15688039Y-13945246D01*
X15688039Y-13945246D02*
X15697563Y-13926198D01*
X15697563Y-13926198D02*
X15707087Y-13916674D01*
X15707087Y-13916674D02*
X15726134Y-13907150D01*
X15726134Y-13907150D02*
X15754706Y-13907150D01*
X15754706Y-13907150D02*
X15773753Y-13916674D01*
X15773753Y-13916674D02*
X15783277Y-13926198D01*
X15783277Y-13926198D02*
X15792801Y-13945246D01*
X15792801Y-13945246D02*
X15792801Y-14002388D01*
X15792801Y-14002388D02*
X15783277Y-14021436D01*
X15783277Y-14021436D02*
X15773753Y-14030960D01*
X15773753Y-14030960D02*
X15754706Y-14040484D01*
X15754706Y-14040484D02*
X15726134Y-14040484D01*
X15907087Y-14040484D02*
X15888039Y-14030960D01*
X15888039Y-14030960D02*
X15878515Y-14011912D01*
X15878515Y-14011912D02*
X15878515Y-13840484D01*
X16059468Y-14030960D02*
X16040420Y-14040484D01*
X16040420Y-14040484D02*
X16002325Y-14040484D01*
X16002325Y-14040484D02*
X15983277Y-14030960D01*
X15983277Y-14030960D02*
X15973753Y-14011912D01*
X15973753Y-14011912D02*
X15973753Y-13935722D01*
X15973753Y-13935722D02*
X15983277Y-13916674D01*
X15983277Y-13916674D02*
X16002325Y-13907150D01*
X16002325Y-13907150D02*
X16040420Y-13907150D01*
X16040420Y-13907150D02*
X16059468Y-13916674D01*
X16059468Y-13916674D02*
X16068991Y-13935722D01*
X16068991Y-13935722D02*
X16068991Y-13954769D01*
X16068991Y-13954769D02*
X15973753Y-13973817D01*
X16145182Y-14030960D02*
X16164230Y-14040484D01*
X16164230Y-14040484D02*
X16202325Y-14040484D01*
X16202325Y-14040484D02*
X16221372Y-14030960D01*
X16221372Y-14030960D02*
X16230896Y-14011912D01*
X16230896Y-14011912D02*
X16230896Y-14002388D01*
X16230896Y-14002388D02*
X16221372Y-13983341D01*
X16221372Y-13983341D02*
X16202325Y-13973817D01*
X16202325Y-13973817D02*
X16173753Y-13973817D01*
X16173753Y-13973817D02*
X16154706Y-13964293D01*
X16154706Y-13964293D02*
X16145182Y-13945246D01*
X16145182Y-13945246D02*
X16145182Y-13935722D01*
X16145182Y-13935722D02*
X16154706Y-13916674D01*
X16154706Y-13916674D02*
X16173753Y-13907150D01*
X16173753Y-13907150D02*
X16202325Y-13907150D01*
X16202325Y-13907150D02*
X16221372Y-13916674D01*
X16297563Y-14116674D02*
X16307087Y-14107150D01*
X16307087Y-14107150D02*
X16326134Y-14078579D01*
X16326134Y-14078579D02*
X16335658Y-14059531D01*
X16335658Y-14059531D02*
X16345182Y-14030960D01*
X16345182Y-14030960D02*
X16354706Y-13983341D01*
X16354706Y-13983341D02*
X16354706Y-13945246D01*
X16354706Y-13945246D02*
X16345182Y-13897627D01*
X16345182Y-13897627D02*
X16335658Y-13869055D01*
X16335658Y-13869055D02*
X16326134Y-13850008D01*
X16326134Y-13850008D02*
X16307087Y-13821436D01*
X16307087Y-13821436D02*
X16297563Y-13811912D01*
X16659468Y-14116674D02*
X16649944Y-14107150D01*
X16649944Y-14107150D02*
X16630896Y-14078579D01*
X16630896Y-14078579D02*
X16621372Y-14059531D01*
X16621372Y-14059531D02*
X16611849Y-14030960D01*
X16611849Y-14030960D02*
X16602325Y-13983341D01*
X16602325Y-13983341D02*
X16602325Y-13945246D01*
X16602325Y-13945246D02*
X16611849Y-13897627D01*
X16611849Y-13897627D02*
X16621372Y-13869055D01*
X16621372Y-13869055D02*
X16630896Y-13850008D01*
X16630896Y-13850008D02*
X16649944Y-13821436D01*
X16649944Y-13821436D02*
X16659468Y-13811912D01*
X16735658Y-13907150D02*
X16735658Y-14040484D01*
X16735658Y-13926198D02*
X16745182Y-13916674D01*
X16745182Y-13916674D02*
X16764230Y-13907150D01*
X16764230Y-13907150D02*
X16792801Y-13907150D01*
X16792801Y-13907150D02*
X16811849Y-13916674D01*
X16811849Y-13916674D02*
X16821373Y-13935722D01*
X16821373Y-13935722D02*
X16821373Y-14040484D01*
X16945182Y-14040484D02*
X16926134Y-14030960D01*
X16926134Y-14030960D02*
X16916611Y-14021436D01*
X16916611Y-14021436D02*
X16907087Y-14002388D01*
X16907087Y-14002388D02*
X16907087Y-13945246D01*
X16907087Y-13945246D02*
X16916611Y-13926198D01*
X16916611Y-13926198D02*
X16926134Y-13916674D01*
X16926134Y-13916674D02*
X16945182Y-13907150D01*
X16945182Y-13907150D02*
X16973754Y-13907150D01*
X16973754Y-13907150D02*
X16992801Y-13916674D01*
X16992801Y-13916674D02*
X17002325Y-13926198D01*
X17002325Y-13926198D02*
X17011849Y-13945246D01*
X17011849Y-13945246D02*
X17011849Y-14002388D01*
X17011849Y-14002388D02*
X17002325Y-14021436D01*
X17002325Y-14021436D02*
X16992801Y-14030960D01*
X16992801Y-14030960D02*
X16973754Y-14040484D01*
X16973754Y-14040484D02*
X16945182Y-14040484D01*
X17068992Y-13907150D02*
X17145182Y-13907150D01*
X17097563Y-13840484D02*
X17097563Y-14011912D01*
X17097563Y-14011912D02*
X17107087Y-14030960D01*
X17107087Y-14030960D02*
X17126134Y-14040484D01*
X17126134Y-14040484D02*
X17145182Y-14040484D01*
X17364230Y-13907150D02*
X17364230Y-14107150D01*
X17364230Y-13916674D02*
X17383277Y-13907150D01*
X17383277Y-13907150D02*
X17421373Y-13907150D01*
X17421373Y-13907150D02*
X17440420Y-13916674D01*
X17440420Y-13916674D02*
X17449944Y-13926198D01*
X17449944Y-13926198D02*
X17459468Y-13945246D01*
X17459468Y-13945246D02*
X17459468Y-14002388D01*
X17459468Y-14002388D02*
X17449944Y-14021436D01*
X17449944Y-14021436D02*
X17440420Y-14030960D01*
X17440420Y-14030960D02*
X17421373Y-14040484D01*
X17421373Y-14040484D02*
X17383277Y-14040484D01*
X17383277Y-14040484D02*
X17364230Y-14030960D01*
X17573754Y-14040484D02*
X17554706Y-14030960D01*
X17554706Y-14030960D02*
X17545182Y-14011912D01*
X17545182Y-14011912D02*
X17545182Y-13840484D01*
X17735658Y-14040484D02*
X17735658Y-13935722D01*
X17735658Y-13935722D02*
X17726135Y-13916674D01*
X17726135Y-13916674D02*
X17707087Y-13907150D01*
X17707087Y-13907150D02*
X17668992Y-13907150D01*
X17668992Y-13907150D02*
X17649944Y-13916674D01*
X17735658Y-14030960D02*
X17716611Y-14040484D01*
X17716611Y-14040484D02*
X17668992Y-14040484D01*
X17668992Y-14040484D02*
X17649944Y-14030960D01*
X17649944Y-14030960D02*
X17640420Y-14011912D01*
X17640420Y-14011912D02*
X17640420Y-13992865D01*
X17640420Y-13992865D02*
X17649944Y-13973817D01*
X17649944Y-13973817D02*
X17668992Y-13964293D01*
X17668992Y-13964293D02*
X17716611Y-13964293D01*
X17716611Y-13964293D02*
X17735658Y-13954769D01*
X17802325Y-13907150D02*
X17878515Y-13907150D01*
X17830896Y-13840484D02*
X17830896Y-14011912D01*
X17830896Y-14011912D02*
X17840420Y-14030960D01*
X17840420Y-14030960D02*
X17859468Y-14040484D01*
X17859468Y-14040484D02*
X17878515Y-14040484D01*
X18021373Y-14030960D02*
X18002325Y-14040484D01*
X18002325Y-14040484D02*
X17964230Y-14040484D01*
X17964230Y-14040484D02*
X17945182Y-14030960D01*
X17945182Y-14030960D02*
X17935658Y-14011912D01*
X17935658Y-14011912D02*
X17935658Y-13935722D01*
X17935658Y-13935722D02*
X17945182Y-13916674D01*
X17945182Y-13916674D02*
X17964230Y-13907150D01*
X17964230Y-13907150D02*
X18002325Y-13907150D01*
X18002325Y-13907150D02*
X18021373Y-13916674D01*
X18021373Y-13916674D02*
X18030896Y-13935722D01*
X18030896Y-13935722D02*
X18030896Y-13954769D01*
X18030896Y-13954769D02*
X17935658Y-13973817D01*
X18202325Y-14040484D02*
X18202325Y-13840484D01*
X18202325Y-14030960D02*
X18183277Y-14040484D01*
X18183277Y-14040484D02*
X18145182Y-14040484D01*
X18145182Y-14040484D02*
X18126135Y-14030960D01*
X18126135Y-14030960D02*
X18116611Y-14021436D01*
X18116611Y-14021436D02*
X18107087Y-14002388D01*
X18107087Y-14002388D02*
X18107087Y-13945246D01*
X18107087Y-13945246D02*
X18116611Y-13926198D01*
X18116611Y-13926198D02*
X18126135Y-13916674D01*
X18126135Y-13916674D02*
X18145182Y-13907150D01*
X18145182Y-13907150D02*
X18183277Y-13907150D01*
X18183277Y-13907150D02*
X18202325Y-13916674D01*
X18278516Y-14116674D02*
X18288039Y-14107150D01*
X18288039Y-14107150D02*
X18307087Y-14078579D01*
X18307087Y-14078579D02*
X18316611Y-14059531D01*
X18316611Y-14059531D02*
X18326135Y-14030960D01*
X18326135Y-14030960D02*
X18335658Y-13983341D01*
X18335658Y-13983341D02*
X18335658Y-13945246D01*
X18335658Y-13945246D02*
X18326135Y-13897627D01*
X18326135Y-13897627D02*
X18316611Y-13869055D01*
X18316611Y-13869055D02*
X18307087Y-13850008D01*
X18307087Y-13850008D02*
X18288039Y-13821436D01*
X18288039Y-13821436D02*
X18278516Y-13811912D01*
X11422500Y-14113000D02*
X11422500Y-14313000D01*
X11322500Y-14213000D02*
X11522500Y-14213000D01*
X11764229Y-14104484D02*
X11888039Y-14104484D01*
X11888039Y-14104484D02*
X11821372Y-14180674D01*
X11821372Y-14180674D02*
X11849943Y-14180674D01*
X11849943Y-14180674D02*
X11868991Y-14190198D01*
X11868991Y-14190198D02*
X11878515Y-14199722D01*
X11878515Y-14199722D02*
X11888039Y-14218769D01*
X11888039Y-14218769D02*
X11888039Y-14266388D01*
X11888039Y-14266388D02*
X11878515Y-14285436D01*
X11878515Y-14285436D02*
X11868991Y-14294960D01*
X11868991Y-14294960D02*
X11849943Y-14304484D01*
X11849943Y-14304484D02*
X11792801Y-14304484D01*
X11792801Y-14304484D02*
X11773753Y-14294960D01*
X11773753Y-14294960D02*
X11764229Y-14285436D01*
X11973753Y-14285436D02*
X11983277Y-14294960D01*
X11983277Y-14294960D02*
X11973753Y-14304484D01*
X11973753Y-14304484D02*
X11964229Y-14294960D01*
X11964229Y-14294960D02*
X11973753Y-14285436D01*
X11973753Y-14285436D02*
X11973753Y-14304484D01*
X12059467Y-14123531D02*
X12068991Y-14114008D01*
X12068991Y-14114008D02*
X12088039Y-14104484D01*
X12088039Y-14104484D02*
X12135658Y-14104484D01*
X12135658Y-14104484D02*
X12154705Y-14114008D01*
X12154705Y-14114008D02*
X12164229Y-14123531D01*
X12164229Y-14123531D02*
X12173753Y-14142579D01*
X12173753Y-14142579D02*
X12173753Y-14161627D01*
X12173753Y-14161627D02*
X12164229Y-14190198D01*
X12164229Y-14190198D02*
X12049943Y-14304484D01*
X12049943Y-14304484D02*
X12173753Y-14304484D01*
X12297562Y-14104484D02*
X12316610Y-14104484D01*
X12316610Y-14104484D02*
X12335658Y-14114008D01*
X12335658Y-14114008D02*
X12345182Y-14123531D01*
X12345182Y-14123531D02*
X12354705Y-14142579D01*
X12354705Y-14142579D02*
X12364229Y-14180674D01*
X12364229Y-14180674D02*
X12364229Y-14228293D01*
X12364229Y-14228293D02*
X12354705Y-14266388D01*
X12354705Y-14266388D02*
X12345182Y-14285436D01*
X12345182Y-14285436D02*
X12335658Y-14294960D01*
X12335658Y-14294960D02*
X12316610Y-14304484D01*
X12316610Y-14304484D02*
X12297562Y-14304484D01*
X12297562Y-14304484D02*
X12278515Y-14294960D01*
X12278515Y-14294960D02*
X12268991Y-14285436D01*
X12268991Y-14285436D02*
X12259467Y-14266388D01*
X12259467Y-14266388D02*
X12249943Y-14228293D01*
X12249943Y-14228293D02*
X12249943Y-14180674D01*
X12249943Y-14180674D02*
X12259467Y-14142579D01*
X12259467Y-14142579D02*
X12268991Y-14123531D01*
X12268991Y-14123531D02*
X12278515Y-14114008D01*
X12278515Y-14114008D02*
X12297562Y-14104484D01*
X12488039Y-14104484D02*
X12507086Y-14104484D01*
X12507086Y-14104484D02*
X12526134Y-14114008D01*
X12526134Y-14114008D02*
X12535658Y-14123531D01*
X12535658Y-14123531D02*
X12545182Y-14142579D01*
X12545182Y-14142579D02*
X12554705Y-14180674D01*
X12554705Y-14180674D02*
X12554705Y-14228293D01*
X12554705Y-14228293D02*
X12545182Y-14266388D01*
X12545182Y-14266388D02*
X12535658Y-14285436D01*
X12535658Y-14285436D02*
X12526134Y-14294960D01*
X12526134Y-14294960D02*
X12507086Y-14304484D01*
X12507086Y-14304484D02*
X12488039Y-14304484D01*
X12488039Y-14304484D02*
X12468991Y-14294960D01*
X12468991Y-14294960D02*
X12459467Y-14285436D01*
X12459467Y-14285436D02*
X12449943Y-14266388D01*
X12449943Y-14266388D02*
X12440420Y-14228293D01*
X12440420Y-14228293D02*
X12440420Y-14180674D01*
X12440420Y-14180674D02*
X12449943Y-14142579D01*
X12449943Y-14142579D02*
X12459467Y-14123531D01*
X12459467Y-14123531D02*
X12468991Y-14114008D01*
X12468991Y-14114008D02*
X12488039Y-14104484D01*
X12640420Y-14304484D02*
X12640420Y-14171150D01*
X12640420Y-14190198D02*
X12649943Y-14180674D01*
X12649943Y-14180674D02*
X12668991Y-14171150D01*
X12668991Y-14171150D02*
X12697563Y-14171150D01*
X12697563Y-14171150D02*
X12716610Y-14180674D01*
X12716610Y-14180674D02*
X12726134Y-14199722D01*
X12726134Y-14199722D02*
X12726134Y-14304484D01*
X12726134Y-14199722D02*
X12735658Y-14180674D01*
X12735658Y-14180674D02*
X12754705Y-14171150D01*
X12754705Y-14171150D02*
X12783277Y-14171150D01*
X12783277Y-14171150D02*
X12802324Y-14180674D01*
X12802324Y-14180674D02*
X12811848Y-14199722D01*
X12811848Y-14199722D02*
X12811848Y-14304484D01*
X12907086Y-14304484D02*
X12907086Y-14171150D01*
X12907086Y-14190198D02*
X12916610Y-14180674D01*
X12916610Y-14180674D02*
X12935658Y-14171150D01*
X12935658Y-14171150D02*
X12964229Y-14171150D01*
X12964229Y-14171150D02*
X12983277Y-14180674D01*
X12983277Y-14180674D02*
X12992801Y-14199722D01*
X12992801Y-14199722D02*
X12992801Y-14304484D01*
X12992801Y-14199722D02*
X13002324Y-14180674D01*
X13002324Y-14180674D02*
X13021372Y-14171150D01*
X13021372Y-14171150D02*
X13049943Y-14171150D01*
X13049943Y-14171150D02*
X13068991Y-14180674D01*
X13068991Y-14180674D02*
X13078515Y-14199722D01*
X13078515Y-14199722D02*
X13078515Y-14304484D01*
X13468991Y-14094960D02*
X13297563Y-14352103D01*
X13726134Y-14104484D02*
X13745182Y-14104484D01*
X13745182Y-14104484D02*
X13764229Y-14114008D01*
X13764229Y-14114008D02*
X13773753Y-14123531D01*
X13773753Y-14123531D02*
X13783277Y-14142579D01*
X13783277Y-14142579D02*
X13792801Y-14180674D01*
X13792801Y-14180674D02*
X13792801Y-14228293D01*
X13792801Y-14228293D02*
X13783277Y-14266388D01*
X13783277Y-14266388D02*
X13773753Y-14285436D01*
X13773753Y-14285436D02*
X13764229Y-14294960D01*
X13764229Y-14294960D02*
X13745182Y-14304484D01*
X13745182Y-14304484D02*
X13726134Y-14304484D01*
X13726134Y-14304484D02*
X13707086Y-14294960D01*
X13707086Y-14294960D02*
X13697563Y-14285436D01*
X13697563Y-14285436D02*
X13688039Y-14266388D01*
X13688039Y-14266388D02*
X13678515Y-14228293D01*
X13678515Y-14228293D02*
X13678515Y-14180674D01*
X13678515Y-14180674D02*
X13688039Y-14142579D01*
X13688039Y-14142579D02*
X13697563Y-14123531D01*
X13697563Y-14123531D02*
X13707086Y-14114008D01*
X13707086Y-14114008D02*
X13726134Y-14104484D01*
X13878515Y-14285436D02*
X13888039Y-14294960D01*
X13888039Y-14294960D02*
X13878515Y-14304484D01*
X13878515Y-14304484D02*
X13868991Y-14294960D01*
X13868991Y-14294960D02*
X13878515Y-14285436D01*
X13878515Y-14285436D02*
X13878515Y-14304484D01*
X14078515Y-14304484D02*
X13964229Y-14304484D01*
X14021372Y-14304484D02*
X14021372Y-14104484D01*
X14021372Y-14104484D02*
X14002325Y-14133055D01*
X14002325Y-14133055D02*
X13983277Y-14152103D01*
X13983277Y-14152103D02*
X13964229Y-14161627D01*
X14154706Y-14123531D02*
X14164229Y-14114008D01*
X14164229Y-14114008D02*
X14183277Y-14104484D01*
X14183277Y-14104484D02*
X14230896Y-14104484D01*
X14230896Y-14104484D02*
X14249944Y-14114008D01*
X14249944Y-14114008D02*
X14259467Y-14123531D01*
X14259467Y-14123531D02*
X14268991Y-14142579D01*
X14268991Y-14142579D02*
X14268991Y-14161627D01*
X14268991Y-14161627D02*
X14259467Y-14190198D01*
X14259467Y-14190198D02*
X14145182Y-14304484D01*
X14145182Y-14304484D02*
X14268991Y-14304484D01*
X14440420Y-14104484D02*
X14402325Y-14104484D01*
X14402325Y-14104484D02*
X14383277Y-14114008D01*
X14383277Y-14114008D02*
X14373753Y-14123531D01*
X14373753Y-14123531D02*
X14354706Y-14152103D01*
X14354706Y-14152103D02*
X14345182Y-14190198D01*
X14345182Y-14190198D02*
X14345182Y-14266388D01*
X14345182Y-14266388D02*
X14354706Y-14285436D01*
X14354706Y-14285436D02*
X14364229Y-14294960D01*
X14364229Y-14294960D02*
X14383277Y-14304484D01*
X14383277Y-14304484D02*
X14421372Y-14304484D01*
X14421372Y-14304484D02*
X14440420Y-14294960D01*
X14440420Y-14294960D02*
X14449944Y-14285436D01*
X14449944Y-14285436D02*
X14459467Y-14266388D01*
X14459467Y-14266388D02*
X14459467Y-14218769D01*
X14459467Y-14218769D02*
X14449944Y-14199722D01*
X14449944Y-14199722D02*
X14440420Y-14190198D01*
X14440420Y-14190198D02*
X14421372Y-14180674D01*
X14421372Y-14180674D02*
X14383277Y-14180674D01*
X14383277Y-14180674D02*
X14364229Y-14190198D01*
X14364229Y-14190198D02*
X14354706Y-14199722D01*
X14354706Y-14199722D02*
X14345182Y-14218769D01*
X14583277Y-14104484D02*
X14602325Y-14104484D01*
X14602325Y-14104484D02*
X14621372Y-14114008D01*
X14621372Y-14114008D02*
X14630896Y-14123531D01*
X14630896Y-14123531D02*
X14640420Y-14142579D01*
X14640420Y-14142579D02*
X14649944Y-14180674D01*
X14649944Y-14180674D02*
X14649944Y-14228293D01*
X14649944Y-14228293D02*
X14640420Y-14266388D01*
X14640420Y-14266388D02*
X14630896Y-14285436D01*
X14630896Y-14285436D02*
X14621372Y-14294960D01*
X14621372Y-14294960D02*
X14602325Y-14304484D01*
X14602325Y-14304484D02*
X14583277Y-14304484D01*
X14583277Y-14304484D02*
X14564229Y-14294960D01*
X14564229Y-14294960D02*
X14554706Y-14285436D01*
X14554706Y-14285436D02*
X14545182Y-14266388D01*
X14545182Y-14266388D02*
X14535658Y-14228293D01*
X14535658Y-14228293D02*
X14535658Y-14180674D01*
X14535658Y-14180674D02*
X14545182Y-14142579D01*
X14545182Y-14142579D02*
X14554706Y-14123531D01*
X14554706Y-14123531D02*
X14564229Y-14114008D01*
X14564229Y-14114008D02*
X14583277Y-14104484D01*
X14726134Y-14104484D02*
X14726134Y-14142579D01*
X14802325Y-14104484D02*
X14802325Y-14142579D01*
X15097563Y-14380674D02*
X15088039Y-14371150D01*
X15088039Y-14371150D02*
X15068991Y-14342579D01*
X15068991Y-14342579D02*
X15059468Y-14323531D01*
X15059468Y-14323531D02*
X15049944Y-14294960D01*
X15049944Y-14294960D02*
X15040420Y-14247341D01*
X15040420Y-14247341D02*
X15040420Y-14209246D01*
X15040420Y-14209246D02*
X15049944Y-14161627D01*
X15049944Y-14161627D02*
X15059468Y-14133055D01*
X15059468Y-14133055D02*
X15068991Y-14114008D01*
X15068991Y-14114008D02*
X15088039Y-14085436D01*
X15088039Y-14085436D02*
X15097563Y-14075912D01*
X15259468Y-14171150D02*
X15259468Y-14304484D01*
X15211848Y-14094960D02*
X15164229Y-14237817D01*
X15164229Y-14237817D02*
X15288039Y-14237817D01*
X15516610Y-14304484D02*
X15516610Y-14104484D01*
X15602325Y-14304484D02*
X15602325Y-14199722D01*
X15602325Y-14199722D02*
X15592801Y-14180674D01*
X15592801Y-14180674D02*
X15573753Y-14171150D01*
X15573753Y-14171150D02*
X15545182Y-14171150D01*
X15545182Y-14171150D02*
X15526134Y-14180674D01*
X15526134Y-14180674D02*
X15516610Y-14190198D01*
X15726134Y-14304484D02*
X15707087Y-14294960D01*
X15707087Y-14294960D02*
X15697563Y-14285436D01*
X15697563Y-14285436D02*
X15688039Y-14266388D01*
X15688039Y-14266388D02*
X15688039Y-14209246D01*
X15688039Y-14209246D02*
X15697563Y-14190198D01*
X15697563Y-14190198D02*
X15707087Y-14180674D01*
X15707087Y-14180674D02*
X15726134Y-14171150D01*
X15726134Y-14171150D02*
X15754706Y-14171150D01*
X15754706Y-14171150D02*
X15773753Y-14180674D01*
X15773753Y-14180674D02*
X15783277Y-14190198D01*
X15783277Y-14190198D02*
X15792801Y-14209246D01*
X15792801Y-14209246D02*
X15792801Y-14266388D01*
X15792801Y-14266388D02*
X15783277Y-14285436D01*
X15783277Y-14285436D02*
X15773753Y-14294960D01*
X15773753Y-14294960D02*
X15754706Y-14304484D01*
X15754706Y-14304484D02*
X15726134Y-14304484D01*
X15907087Y-14304484D02*
X15888039Y-14294960D01*
X15888039Y-14294960D02*
X15878515Y-14275912D01*
X15878515Y-14275912D02*
X15878515Y-14104484D01*
X16059468Y-14294960D02*
X16040420Y-14304484D01*
X16040420Y-14304484D02*
X16002325Y-14304484D01*
X16002325Y-14304484D02*
X15983277Y-14294960D01*
X15983277Y-14294960D02*
X15973753Y-14275912D01*
X15973753Y-14275912D02*
X15973753Y-14199722D01*
X15973753Y-14199722D02*
X15983277Y-14180674D01*
X15983277Y-14180674D02*
X16002325Y-14171150D01*
X16002325Y-14171150D02*
X16040420Y-14171150D01*
X16040420Y-14171150D02*
X16059468Y-14180674D01*
X16059468Y-14180674D02*
X16068991Y-14199722D01*
X16068991Y-14199722D02*
X16068991Y-14218769D01*
X16068991Y-14218769D02*
X15973753Y-14237817D01*
X16145182Y-14294960D02*
X16164230Y-14304484D01*
X16164230Y-14304484D02*
X16202325Y-14304484D01*
X16202325Y-14304484D02*
X16221372Y-14294960D01*
X16221372Y-14294960D02*
X16230896Y-14275912D01*
X16230896Y-14275912D02*
X16230896Y-14266388D01*
X16230896Y-14266388D02*
X16221372Y-14247341D01*
X16221372Y-14247341D02*
X16202325Y-14237817D01*
X16202325Y-14237817D02*
X16173753Y-14237817D01*
X16173753Y-14237817D02*
X16154706Y-14228293D01*
X16154706Y-14228293D02*
X16145182Y-14209246D01*
X16145182Y-14209246D02*
X16145182Y-14199722D01*
X16145182Y-14199722D02*
X16154706Y-14180674D01*
X16154706Y-14180674D02*
X16173753Y-14171150D01*
X16173753Y-14171150D02*
X16202325Y-14171150D01*
X16202325Y-14171150D02*
X16221372Y-14180674D01*
X16297563Y-14380674D02*
X16307087Y-14371150D01*
X16307087Y-14371150D02*
X16326134Y-14342579D01*
X16326134Y-14342579D02*
X16335658Y-14323531D01*
X16335658Y-14323531D02*
X16345182Y-14294960D01*
X16345182Y-14294960D02*
X16354706Y-14247341D01*
X16354706Y-14247341D02*
X16354706Y-14209246D01*
X16354706Y-14209246D02*
X16345182Y-14161627D01*
X16345182Y-14161627D02*
X16335658Y-14133055D01*
X16335658Y-14133055D02*
X16326134Y-14114008D01*
X16326134Y-14114008D02*
X16307087Y-14085436D01*
X16307087Y-14085436D02*
X16297563Y-14075912D01*
X16659468Y-14380674D02*
X16649944Y-14371150D01*
X16649944Y-14371150D02*
X16630896Y-14342579D01*
X16630896Y-14342579D02*
X16621372Y-14323531D01*
X16621372Y-14323531D02*
X16611849Y-14294960D01*
X16611849Y-14294960D02*
X16602325Y-14247341D01*
X16602325Y-14247341D02*
X16602325Y-14209246D01*
X16602325Y-14209246D02*
X16611849Y-14161627D01*
X16611849Y-14161627D02*
X16621372Y-14133055D01*
X16621372Y-14133055D02*
X16630896Y-14114008D01*
X16630896Y-14114008D02*
X16649944Y-14085436D01*
X16649944Y-14085436D02*
X16659468Y-14075912D01*
X16735658Y-14171150D02*
X16735658Y-14304484D01*
X16735658Y-14190198D02*
X16745182Y-14180674D01*
X16745182Y-14180674D02*
X16764230Y-14171150D01*
X16764230Y-14171150D02*
X16792801Y-14171150D01*
X16792801Y-14171150D02*
X16811849Y-14180674D01*
X16811849Y-14180674D02*
X16821373Y-14199722D01*
X16821373Y-14199722D02*
X16821373Y-14304484D01*
X16945182Y-14304484D02*
X16926134Y-14294960D01*
X16926134Y-14294960D02*
X16916611Y-14285436D01*
X16916611Y-14285436D02*
X16907087Y-14266388D01*
X16907087Y-14266388D02*
X16907087Y-14209246D01*
X16907087Y-14209246D02*
X16916611Y-14190198D01*
X16916611Y-14190198D02*
X16926134Y-14180674D01*
X16926134Y-14180674D02*
X16945182Y-14171150D01*
X16945182Y-14171150D02*
X16973754Y-14171150D01*
X16973754Y-14171150D02*
X16992801Y-14180674D01*
X16992801Y-14180674D02*
X17002325Y-14190198D01*
X17002325Y-14190198D02*
X17011849Y-14209246D01*
X17011849Y-14209246D02*
X17011849Y-14266388D01*
X17011849Y-14266388D02*
X17002325Y-14285436D01*
X17002325Y-14285436D02*
X16992801Y-14294960D01*
X16992801Y-14294960D02*
X16973754Y-14304484D01*
X16973754Y-14304484D02*
X16945182Y-14304484D01*
X17068992Y-14171150D02*
X17145182Y-14171150D01*
X17097563Y-14104484D02*
X17097563Y-14275912D01*
X17097563Y-14275912D02*
X17107087Y-14294960D01*
X17107087Y-14294960D02*
X17126134Y-14304484D01*
X17126134Y-14304484D02*
X17145182Y-14304484D01*
X17364230Y-14171150D02*
X17364230Y-14371150D01*
X17364230Y-14180674D02*
X17383277Y-14171150D01*
X17383277Y-14171150D02*
X17421373Y-14171150D01*
X17421373Y-14171150D02*
X17440420Y-14180674D01*
X17440420Y-14180674D02*
X17449944Y-14190198D01*
X17449944Y-14190198D02*
X17459468Y-14209246D01*
X17459468Y-14209246D02*
X17459468Y-14266388D01*
X17459468Y-14266388D02*
X17449944Y-14285436D01*
X17449944Y-14285436D02*
X17440420Y-14294960D01*
X17440420Y-14294960D02*
X17421373Y-14304484D01*
X17421373Y-14304484D02*
X17383277Y-14304484D01*
X17383277Y-14304484D02*
X17364230Y-14294960D01*
X17573754Y-14304484D02*
X17554706Y-14294960D01*
X17554706Y-14294960D02*
X17545182Y-14275912D01*
X17545182Y-14275912D02*
X17545182Y-14104484D01*
X17735658Y-14304484D02*
X17735658Y-14199722D01*
X17735658Y-14199722D02*
X17726135Y-14180674D01*
X17726135Y-14180674D02*
X17707087Y-14171150D01*
X17707087Y-14171150D02*
X17668992Y-14171150D01*
X17668992Y-14171150D02*
X17649944Y-14180674D01*
X17735658Y-14294960D02*
X17716611Y-14304484D01*
X17716611Y-14304484D02*
X17668992Y-14304484D01*
X17668992Y-14304484D02*
X17649944Y-14294960D01*
X17649944Y-14294960D02*
X17640420Y-14275912D01*
X17640420Y-14275912D02*
X17640420Y-14256865D01*
X17640420Y-14256865D02*
X17649944Y-14237817D01*
X17649944Y-14237817D02*
X17668992Y-14228293D01*
X17668992Y-14228293D02*
X17716611Y-14228293D01*
X17716611Y-14228293D02*
X17735658Y-14218769D01*
X17802325Y-14171150D02*
X17878515Y-14171150D01*
X17830896Y-14104484D02*
X17830896Y-14275912D01*
X17830896Y-14275912D02*
X17840420Y-14294960D01*
X17840420Y-14294960D02*
X17859468Y-14304484D01*
X17859468Y-14304484D02*
X17878515Y-14304484D01*
X18021373Y-14294960D02*
X18002325Y-14304484D01*
X18002325Y-14304484D02*
X17964230Y-14304484D01*
X17964230Y-14304484D02*
X17945182Y-14294960D01*
X17945182Y-14294960D02*
X17935658Y-14275912D01*
X17935658Y-14275912D02*
X17935658Y-14199722D01*
X17935658Y-14199722D02*
X17945182Y-14180674D01*
X17945182Y-14180674D02*
X17964230Y-14171150D01*
X17964230Y-14171150D02*
X18002325Y-14171150D01*
X18002325Y-14171150D02*
X18021373Y-14180674D01*
X18021373Y-14180674D02*
X18030896Y-14199722D01*
X18030896Y-14199722D02*
X18030896Y-14218769D01*
X18030896Y-14218769D02*
X17935658Y-14237817D01*
X18202325Y-14304484D02*
X18202325Y-14104484D01*
X18202325Y-14294960D02*
X18183277Y-14304484D01*
X18183277Y-14304484D02*
X18145182Y-14304484D01*
X18145182Y-14304484D02*
X18126135Y-14294960D01*
X18126135Y-14294960D02*
X18116611Y-14285436D01*
X18116611Y-14285436D02*
X18107087Y-14266388D01*
X18107087Y-14266388D02*
X18107087Y-14209246D01*
X18107087Y-14209246D02*
X18116611Y-14190198D01*
X18116611Y-14190198D02*
X18126135Y-14180674D01*
X18126135Y-14180674D02*
X18145182Y-14171150D01*
X18145182Y-14171150D02*
X18183277Y-14171150D01*
X18183277Y-14171150D02*
X18202325Y-14180674D01*
X18278516Y-14380674D02*
X18288039Y-14371150D01*
X18288039Y-14371150D02*
X18307087Y-14342579D01*
X18307087Y-14342579D02*
X18316611Y-14323531D01*
X18316611Y-14323531D02*
X18326135Y-14294960D01*
X18326135Y-14294960D02*
X18335658Y-14247341D01*
X18335658Y-14247341D02*
X18335658Y-14209246D01*
X18335658Y-14209246D02*
X18326135Y-14161627D01*
X18326135Y-14161627D02*
X18316611Y-14133055D01*
X18316611Y-14133055D02*
X18307087Y-14114008D01*
X18307087Y-14114008D02*
X18288039Y-14085436D01*
X18288039Y-14085436D02*
X18278516Y-14075912D01*
M02*
