M48
; DRILL file {KiCad 8.0.0} date 2025-05-02T12:09:02-0300
; FORMAT={-:-/ absolute / metric / decimal}
; #@! TF.CreationDate,2025-05-02T12:09:02-03:00
; #@! TF.GenerationSoftware,Kicad,Pcbnew,8.0.0
; #@! TF.FileFunction,Plated,1,4,PTH
FMAT,2
METRIC
; #@! TA.AperFunction,Plated,PTH,ViaDrill
T1C0.200
; #@! TA.AperFunction,Plated,PTH,ViaDrill
T2C0.350
; #@! TA.AperFunction,Plated,PTH,ComponentDrill
T3C1.000
%
G90
G05
T1
X120.2Y-103.0
X126.6Y-85.6
X126.8Y-76.2
X131.4Y-101.4
X131.95Y-101.4
X132.8Y-88.6
X134.2Y-82.0
X134.2Y-82.6
X137.2Y-81.2
X138.6Y-86.4
X139.2Y-86.4
X139.8Y-78.0
X139.8Y-86.4
X140.4Y-86.4
X141.2Y-78.4
X141.8Y-86.2
X142.4Y-78.4
X145.6Y-78.8
X148.8Y-76.8
X150.6Y-81.4
X152.0Y-91.0
X156.4Y-89.0
X156.6Y-84.8
X156.8Y-86.0
X159.6Y-80.8
X165.2Y-83.6
T2
X117.5Y-77.5
X117.8Y-116.0
X122.5Y-77.5
X122.5Y-80.0
X125.0Y-87.5
X126.0Y-125.0
X126.0Y-127.5
X127.0Y-90.5
X127.6Y-107.8
X128.0Y-94.0
X128.5Y-125.0
X128.5Y-127.5
X131.0Y-125.0
X131.0Y-127.5
X131.5Y-69.5
X131.5Y-72.0
X134.0Y-69.5
X134.0Y-72.0
X135.0Y-97.5
X135.0Y-100.0
X136.4Y-110.8
X136.5Y-69.5
X136.5Y-72.0
X137.4Y-95.0
X137.5Y-97.5
X137.5Y-100.0
X139.0Y-69.5
X139.0Y-72.0
X140.0Y-95.0
X140.0Y-97.5
X140.0Y-100.0
X141.5Y-69.5
X141.5Y-72.0
X142.5Y-95.0
X142.5Y-97.5
X142.5Y-100.0
X144.0Y-69.5
X144.0Y-72.0
X145.0Y-95.0
X145.0Y-97.5
X145.0Y-100.0
X146.5Y-69.5
X146.5Y-72.0
X147.5Y-97.5
X147.5Y-100.0
X147.5Y-105.0
X147.5Y-107.5
X148.8Y-78.0
X149.0Y-69.5
X149.0Y-72.0
X150.0Y-97.5
X150.0Y-100.0
X150.0Y-105.0
X150.0Y-107.5
X152.5Y-97.5
X152.5Y-100.0
X152.5Y-105.0
X152.5Y-107.5
X155.0Y-105.0
X155.0Y-107.5
X156.5Y-74.5
X156.5Y-77.0
X159.0Y-74.5
X159.0Y-77.0
X160.0Y-98.5
X160.0Y-102.5
X160.0Y-105.0
X160.0Y-107.5
X161.5Y-74.5
X161.5Y-77.0
X162.5Y-98.5
X162.5Y-102.5
X162.5Y-105.0
X162.5Y-107.5
X162.5Y-110.0
X165.0Y-98.5
X165.0Y-102.5
X165.0Y-105.0
X165.0Y-107.5
X165.0Y-110.0
T3
X118.0Y-97.405
X118.0Y-99.945
X118.0Y-102.485
X118.0Y-105.025
X152.98Y-71.0
X155.52Y-71.0
X158.06Y-71.0
X160.6Y-71.0
X167.8Y-109.2
X167.8Y-111.74
X168.0Y-79.66
X168.0Y-82.2
X168.0Y-88.2
X168.0Y-90.74
X168.0Y-93.28
X168.0Y-95.82
X168.0Y-98.36
X168.0Y-100.9
X168.0Y-103.44
M30
